<?xml version="1.0" encoding="UTF-8"?>
<svg width="200px" height="67px" viewBox="0 0 200 67" version="1.1" xmlns="http://www.w3.org/2000/svg" xmlns:xlink="http://www.w3.org/1999/xlink">
    <!-- Generator: Sketch 62 (91390) - https://sketch.com -->
    <title>New Mosby Logo</title>
    <desc>Created with Sketch.</desc>
    <defs>
        <polygon id="path-1" points="0.032967033 0.386813187 196.258242 0.386813187 196.258242 65.9010989 0.032967033 65.9010989"></polygon>
        <polygon id="path-3" points="0.395604396 0.289010989 150.03022 0.289010989 150.03022 41.3379121 0.395604396 41.3379121"></polygon>
    </defs>
    <g id="Mosby-App-Mobile" stroke="none" stroke-width="1" fill="none" fill-rule="evenodd">
        <g id="Login-Options" transform="translate(-80.000000, -123.000000)">
            <g id="New-Mosby-Logo" transform="translate(80.000000, 123.000000)">
                <path d="M2.97582418,63.3763736 L8.41318681,63.3763736 C8.81043956,63.3763736 9.23296703,63.3379121 9.68241758,63.2598901 C10.1307692,63.1824176 10.5450549,63.0489011 10.9247253,62.8582418 C11.3043956,62.6692308 11.6192308,62.4148352 11.8703297,62.0950549 C12.1203297,61.7758242 12.2456044,61.3659341 12.2456044,60.8653846 C12.2456044,60.3824176 12.1241758,59.9631868 11.882967,59.6087912 C11.6412088,59.2554945 11.3346154,58.9620879 10.9637363,58.7291209 C10.5923077,58.4956044 10.1824176,58.3236264 9.73406593,58.210989 C9.28461538,58.0989011 8.8532967,58.0428571 8.43901099,58.0428571 L2.97582418,58.0428571 L2.97582418,63.3763736 Z M2.97582418,55.4532967 L8.43901099,55.4532967 C9.52637363,55.4532967 10.3423077,55.2543956 10.8857143,54.8549451 C11.4296703,54.456044 11.7016484,53.8917582 11.7016484,53.1626374 C11.7016484,52.8505495 11.6324176,52.5340659 11.4945055,52.2126374 C11.356044,51.8923077 11.1489011,51.6104396 10.8730769,51.3664835 C10.5967033,51.1241758 10.2516484,50.9247253 9.83736264,50.7681319 C9.42307692,50.6120879 8.94835165,50.5340659 8.41318681,50.5340659 L2.97582418,50.5340659 L2.97582418,55.4532967 Z M8.41318681,47.9445055 C9.27637363,47.9445055 10.0835165,48.0445055 10.8340659,48.2428571 C11.5851648,48.4412088 12.2362637,48.7521978 12.789011,49.1741758 C13.3412088,49.5983516 13.7769231,50.1368132 14.0967033,50.7923077 C14.4159341,51.4494505 14.5758242,52.2258242 14.5758242,53.1236264 C14.5758242,53.9 14.3725275,54.6082418 13.967033,55.2461538 C13.5615385,55.8851648 12.9269231,56.3774725 12.0637363,56.721978 C12.5989011,56.878022 13.0648352,57.1192308 13.4620879,57.4472527 C13.8593407,57.7752747 14.1785714,58.1379121 14.4203297,58.5346154 C14.6620879,58.9318681 14.8434066,59.3373626 14.9642857,59.7516484 C15.0846154,60.1659341 15.1450549,60.5456044 15.1450549,60.8906593 C15.1450549,61.8747253 14.9642857,62.6989011 14.6016484,63.3631868 C14.239011,64.028022 13.7472527,64.5637363 13.1258242,64.9686813 C12.5043956,65.3747253 11.7879121,65.6593407 10.9763736,65.8236264 C10.1648352,65.9879121 9.31043956,66.0692308 8.41318681,66.0692308 L0.102197802,66.0692308 L0.102197802,47.9445055 L8.41318681,47.9445055 L8.41318681,47.9445055 Z" id="Fill-1" fill="#009C49"></path>
                <path d="M33.6527473,47.9708791 L33.6527473,58.5604396 C33.6527473,59.8901099 33.4456044,61.0549451 33.0313187,62.056044 C32.617033,63.0576923 32.056044,63.8862637 31.3483516,64.5417582 C30.6406593,65.1978022 29.8032967,65.6807692 28.8368132,65.9917582 C27.8697802,66.3021978 26.8428571,66.4401099 25.7554945,66.4054945 C24.7368132,66.3884615 23.7791209,66.2071429 22.8818681,65.8620879 C21.9840659,65.517033 21.1895604,65.0208791 20.4994505,64.3730769 C19.8087912,63.7263736 19.2648352,62.9192308 18.8681319,61.9521978 C18.4708791,60.9857143 18.2725275,59.8554945 18.2725275,58.5604396 L18.2725275,47.9708791 L21.1467033,47.9708791 L21.1467033,58.5434066 C21.1467033,59.3708791 21.2587912,60.0989011 21.4835165,60.7274725 C21.7076923,61.3565934 22.0269231,61.8868132 22.4412088,62.3175824 C22.856044,62.7483516 23.3434066,63.0846154 23.9043956,63.3252747 C24.4648352,63.567033 25.0824176,63.6961538 25.7554945,63.7131868 C26.4807692,63.7483516 27.1494505,63.6615385 27.7620879,63.4543956 C28.3747253,63.2478022 28.9054945,62.9247253 29.3543956,62.4851648 C29.8032967,62.0461538 30.1527473,61.4945055 30.4032967,60.8307692 C30.6532967,60.1675824 30.7791209,59.4049451 30.7791209,58.5434066 L30.7791209,47.9708791 L33.6527473,47.9708791" id="Fill-2" fill="#009C49"></path>
                <polygon id="Fill-3" fill="#009C49" points="37.9093407 66.0692308 40.782967 66.0692308 40.782967 47.9445055 37.9093407 47.9445055"></polygon>
                <polyline id="Fill-4" fill="#009C49" points="48.0873626 47.9445055 48.0873626 63.3763736 57.6417582 63.3763736 57.6417582 66.0692308 45.1873626 66.0692308 45.1873626 47.9445055 48.0873626 47.9445055"></polyline>
                <path d="M62.9879121,63.2725275 L66.9752747,63.2725275 C68.0802198,63.2725275 69.0296703,63.0873626 69.8236264,62.7164835 C70.6175824,62.3456044 71.2648352,61.8532967 71.7653846,61.2401099 C72.2659341,60.628022 72.632967,59.9373626 72.8659341,59.1692308 C73.0989011,58.4010989 73.2065934,57.6197802 73.1895604,56.8258242 C73.1725275,56.0664835 73.0384615,55.3203297 72.7884615,54.5862637 C72.5379121,53.8527473 72.1582418,53.2005495 71.6489011,52.6313187 C71.1395604,52.0615385 70.5005495,51.6 69.732967,51.2461538 C68.9648352,50.8923077 68.0456044,50.7153846 66.9752747,50.7153846 L62.9879121,50.7153846 L62.9879121,63.2725275 Z M66.9752747,47.9445055 C68.5291209,47.9445055 69.8708791,48.2 71.0016484,48.7082418 C72.1324176,49.2181319 73.0686813,49.8868132 73.810989,50.7153846 C74.5527473,51.543956 75.1098901,52.4934066 75.4807692,53.5631868 C75.8521978,54.6340659 76.0461538,55.7296703 76.0637363,56.8516484 C76.0807692,57.9906593 75.917033,59.1131868 75.5714286,60.2175824 C75.2263736,61.3230769 74.6824176,62.3104396 73.9406593,63.1824176 C73.1983516,64.0538462 72.2489011,64.7532967 71.0923077,65.2796703 C69.9357143,65.8065934 68.5637363,66.0692308 66.9752747,66.0692308 L60.1142857,66.0692308 L60.1142857,47.9445055 L66.9752747,47.9445055 L66.9752747,47.9445055 Z" id="Fill-5" fill="#009C49"></path>
                <polygon id="Fill-6" fill="#009C49" points="79.4010989 66.0692308 82.2752747 66.0692308 82.2752747 47.9445055 79.4010989 47.9445055"></polygon>
                <polyline id="Fill-7" fill="#009C49" points="99.1857143 60.8395604 99.1857143 47.9445055 102.085165 47.9445055 102.085165 66.0692308 99.8840659 66.0692308 89.6049451 53.2785714 89.6049451 66.0692308 86.6791209 66.0692308 86.6791209 47.9445055 88.906044 47.9445055 99.1857143 60.8395604"></polyline>
                <path d="M119.887912,52.1362637 C119.232418,51.4989011 118.463736,51.0164835 117.584066,50.6884615 C116.703297,50.360989 115.84011,50.1967033 114.994505,50.1967033 C113.924176,50.1967033 112.974725,50.382967 112.146154,50.7538462 C111.318132,51.1252747 110.618681,51.6307692 110.049451,52.2686813 C109.47967,52.9076923 109.047802,53.6543956 108.754945,54.5082418 C108.46044,55.3631868 108.314835,56.2648352 108.314835,57.2142857 C108.314835,58.0428571 108.439011,58.85 108.68956,59.6351648 C108.93956,60.4208791 109.337363,61.1153846 109.880769,61.7192308 C110.424725,62.3241758 111.119231,62.8115385 111.964835,63.1824176 C112.81044,63.5538462 113.82033,63.739011 114.994505,63.739011 C115.771429,63.739011 116.521978,63.621978 117.247253,63.3879121 C117.972527,63.1543956 118.697253,62.7335165 119.422527,62.1258242 L119.422527,58.4313187 L114.373077,58.4313187 L114.373077,55.8417582 L122.114835,55.8417582 L122.114835,63.2725275 C121.2,64.2747253 120.168681,65.0510989 119.020879,65.6032967 C117.872527,66.1554945 116.530769,66.4318681 114.994505,66.4318681 C113.337363,66.4318681 111.909341,66.1769231 110.709341,65.6681319 C109.50989,65.1593407 108.521978,64.4769231 107.745055,63.6225275 C106.968132,62.7675824 106.393956,61.7840659 106.023077,60.6708791 C105.651648,59.5576923 105.465934,58.3967033 105.465934,57.1884615 C105.465934,55.8763736 105.673626,54.6340659 106.087912,53.4598901 C106.502198,52.2862637 107.11044,51.2587912 107.913187,50.3785714 C108.715385,49.4983516 109.708242,48.7994505 110.890659,48.2813187 C112.073077,47.7637363 113.441209,47.5043956 114.994505,47.5043956 C116.202747,47.5043956 117.38956,47.7302198 118.554396,48.1813187 C119.72033,48.6324176 120.768681,49.3258242 121.700549,50.2626374 L119.887912,52.1362637" id="Fill-8" fill="#009C49"></path>
                <path d="M136.325824,50.9994505 L132.493956,59.6225275 L140.158242,59.6225275 L136.325824,50.9994505 Z M141.219231,62.2631868 L131.406044,62.2631868 L129.697802,66.0692308 L126.615934,66.0692308 L134.746154,47.9445055 L137.904945,47.9445055 L146.035165,66.0692308 L142.954396,66.0692308 L141.219231,62.2631868 L141.219231,62.2631868 Z" id="Fill-9" fill="#00A9D1"></path>
                <path d="M151.312088,50.5851648 L151.312088,57.1620879 L156.826923,57.1620879 C157.430769,57.1620879 157.948901,57.0763736 158.380769,56.9038462 C158.811538,56.7313187 159.16978,56.4934066 159.454945,56.1917582 C159.74011,55.8895604 159.951099,55.543956 160.089011,55.156044 C160.227473,54.7675824 160.296154,54.3576923 160.296154,53.9258242 C160.296154,53.5115385 160.227473,53.106044 160.089011,52.7087912 C159.951099,52.3120879 159.743956,51.9582418 159.467582,51.6472527 C159.191209,51.3368132 158.833516,51.0824176 158.393407,50.8840659 C157.953297,50.6851648 157.43956,50.5851648 156.853297,50.5851648 L151.312088,50.5851648 Z M164.050549,66.0692308 L160.658791,66.0692308 L155.143956,59.8032967 L151.312088,59.8032967 L151.312088,66.0692308 L148.411538,66.0692308 L148.411538,47.9186813 C149.826923,47.9186813 151.234066,47.9230769 152.632418,47.9313187 C154.030769,47.9406593 155.436813,47.9445055 156.853297,47.9445055 C157.905495,47.9445055 158.829121,48.1087912 159.623626,48.4368132 C160.417033,48.7648352 161.081868,49.2049451 161.617033,49.7571429 C162.151648,50.3098901 162.557143,50.943956 162.833516,51.6604396 C163.10989,52.3763736 163.248352,53.1148352 163.248352,53.8741758 C163.248352,54.5302198 163.157692,55.1648352 162.976374,55.7774725 C162.795055,56.3901099 162.50989,56.9549451 162.121429,57.4730769 C161.733516,57.9906593 161.228571,58.4313187 160.607692,58.7934066 C159.985714,59.156044 159.225824,59.3983516 158.328571,59.5186813 L163.74011,65.5516484 L164.050549,66.0692308 L164.050549,66.0692308 Z" id="Fill-10" fill="#00A9D1"></path>
                <g id="Group-15" transform="translate(0.000000, 0.549451)">
                    <mask id="mask-2" fill="white">
                        <use xlink:href="#path-1"></use>
                    </mask>
                    <g id="Clip-12"></g>
                    <polyline id="Fill-11" fill="#00A9D1" mask="url(#mask-2)" points="170.884066 49.9846154 164.928571 49.9846154 164.928571 47.3950549 179.739011 47.3950549 179.739011 49.9846154 173.80989 49.9846154 173.80989 65.5197802 170.884066 65.5197802 170.884066 49.9846154"></polyline>
                    <path d="M193.254945,51.4087912 C192.822527,50.7873626 192.206044,50.3 191.403297,49.9461538 C190.600549,49.5917582 189.724725,49.406044 188.775275,49.389011 C188.170879,49.389011 187.60989,49.45 187.092308,49.5703297 C186.574176,49.6917582 186.13022,49.8681319 185.758791,50.1010989 C185.387363,50.3346154 185.098901,50.6230769 184.891758,50.9686813 C184.684615,51.3142857 184.580769,51.7027473 184.580769,52.1335165 C184.580769,52.5824176 184.697253,52.9489011 184.93022,53.2340659 C185.163187,53.5186813 185.482418,53.760989 185.887912,53.9587912 C186.293956,54.1576923 186.75989,54.3131868 187.286264,54.4252747 C187.812637,54.5373626 188.378022,54.6368132 188.982418,54.7230769 C189.914286,54.8615385 190.816484,55.0379121 191.688462,55.2538462 C192.55989,55.4697802 193.336264,55.7840659 194.018681,56.1983516 C194.7,56.6126374 195.243956,57.1527473 195.65,57.817033 C196.054945,58.4818681 196.258242,59.3230769 196.258242,60.3412088 C196.258242,61.3604396 196.042308,62.2230769 195.610989,62.9307692 C195.17967,63.6384615 194.613736,64.2164835 193.914835,64.6659341 C193.215934,65.1148352 192.417033,65.4384615 191.51978,65.6362637 C190.622527,65.8346154 189.698352,65.9340659 188.749451,65.9340659 C187.886264,65.9340659 187.070879,65.8648352 186.302747,65.7269231 C185.534615,65.5884615 184.822527,65.356044 184.167033,65.028022 C183.51044,64.7 182.914835,64.2730769 182.38022,63.7467033 C181.844505,63.2203297 181.37033,62.5774725 180.956044,61.8175824 L183.130769,60.367033 C183.458242,60.9197802 183.838462,61.3862637 184.27033,61.7653846 C184.701099,62.1456044 185.163187,62.4516484 185.655495,62.6846154 C186.147253,62.9175824 186.660989,63.0862637 187.195604,63.1895604 C187.730769,63.2928571 188.257692,63.3450549 188.775275,63.3450549 C189.31044,63.3450549 189.853846,63.2972527 190.406593,63.2021978 C190.958791,63.1082418 191.450549,62.943956 191.882418,62.7104396 C192.313736,62.4774725 192.667582,62.167033 192.943956,61.7785714 C193.21978,61.3901099 193.358242,60.910989 193.358242,60.3412088 C193.358242,59.8582418 193.237363,59.4445055 192.995604,59.0989011 C192.753846,58.7538462 192.421978,58.4686813 191.998901,58.243956 C191.575824,58.0203297 191.083516,57.839011 190.523077,57.7005495 C189.961538,57.5626374 189.362088,57.4505495 188.723626,57.3637363 C187.825824,57.2434066 186.953846,57.0835165 186.108791,56.8846154 C185.262637,56.6868132 184.515934,56.3928571 183.869231,56.0043956 C183.221429,55.6159341 182.699451,55.1071429 182.302198,54.4769231 C181.904945,53.8467033 181.706593,53.0489011 181.706593,52.0818681 C181.706593,51.15 181.913736,50.3516484 182.328022,49.6868132 C182.742308,49.0225275 183.286264,48.482967 183.959341,48.0686813 C184.632418,47.6543956 185.387363,47.3521978 186.225275,47.1620879 C187.062088,46.971978 187.886264,46.878022 188.697802,46.878022 C189.353297,46.878022 190.001099,46.9208791 190.63956,47.0065934 C191.278022,47.0934066 191.890659,47.2527473 192.478022,47.4862637 C193.064835,47.7192308 193.612637,48.0340659 194.122527,48.4313187 C194.630769,48.828022 195.075824,49.3285714 195.455495,49.932967 L193.254945,51.4087912" id="Fill-13" fill="#00A9D1" mask="url(#mask-2)"></path>
                    <polygon id="Fill-14" fill="#005992" mask="url(#mask-2)" points="0.032967033 40.1412088 8.7032967 40.1412088 8.7032967 0.386813187 0.032967033 0.386813187"></polygon>
                </g>
                <polyline id="Fill-16" fill="#005992" points="41.1428571 0.936263736 17.4065934 0.936263736 29.2747253 16.7604396 41.1428571 0.936263736"></polyline>
                <polyline id="Fill-17" fill="#005992" points="29.2747253 32.5846154 17.4065934 16.7604396 17.4065934 40.6906593 41.1428571 40.6906593 41.1428571 16.7604396 29.2747253 32.5846154"></polyline>
                <g id="Group-24" transform="translate(49.450549, 0.000000)">
                    <mask id="mask-4" fill="white">
                        <use xlink:href="#path-3"></use>
                    </mask>
                    <g id="Clip-19"></g>
                    <polygon id="Fill-18" fill="#005992" mask="url(#mask-4)" points="0.395604396 40.6906593 9.0989011 40.6906593 9.0989011 0.936263736 0.395604396 0.936263736"></polygon>
                    <path d="M44.9928571,20.8137363 C44.9928571,13.7703297 39.8208791,8.21263736 32.9428571,8.21263736 C26.0642857,8.21263736 20.8917582,13.7703297 20.8917582,20.8137363 C20.8917582,27.8565934 26.0642857,33.4142857 32.9428571,33.4142857 C39.8208791,33.4142857 44.9928571,27.8565934 44.9928571,20.8137363 Z M12.1428571,20.8137363 C12.1428571,9.2032967 21.1120879,0.289010989 32.9428571,0.289010989 C44.7730769,0.289010989 53.7417582,9.2032967 53.7417582,20.8137363 C53.7417582,32.4236264 44.7730769,41.3379121 32.9428571,41.3379121 C21.1120879,41.3379121 12.1428571,32.4236264 12.1428571,20.8137363 L12.1428571,20.8137363 Z" id="Fill-20" fill="#005992" mask="url(#mask-4)"></path>
                    <path d="M54.8950549,29.5626374 C59.1324176,32.4236264 64.4692308,33.6895604 67.6065934,33.6895604 C70.7978022,33.6895604 73.1631868,32.4236264 73.1631868,29.4521978 C73.1631868,25.7659341 69.421978,25.4357143 64.3049451,23.7846154 C58.8016484,21.9692308 53.8494505,19.2725275 53.8494505,12.3395604 C53.8494505,4.91098901 59.4626374,0.289010989 67.8263736,0.289010989 C71.732967,0.289010989 76.5208791,1.27912088 79.9868132,3.15054945 L79.9868132,11.7895604 C75.75,9.14835165 70.8521978,7.93736264 67.7708791,7.93736264 C64.7994505,7.93736264 62.6538462,9.03791209 62.6538462,11.6791209 C62.6538462,15.2010989 66.3401099,15.4758242 71.1274725,17.0714286 C77.1252747,19.0527473 81.9681319,21.8587912 81.9681319,28.9021978 C81.9681319,36.660989 76.0796703,41.3379121 67.4961538,41.3379121 C63.5346154,41.3379121 58.6368132,40.3472527 54.8950549,38.421978 L54.8950549,29.5626374" id="Fill-21" fill="#005992" mask="url(#mask-4)"></path>
                    <path d="M96.3274725,33.2494505 C99.4642857,33.2494505 101.61044,33.0291209 102.930769,32.4785714 C104.801648,31.7087912 105.407143,30.2230769 105.407143,28.4620879 C105.407143,24.9950549 102.986264,23.4 98.3087912,23.4 L93.0813187,23.4 L93.0813187,33.2494505 L96.3274725,33.2494505 Z M97.7032967,17.4021978 C101.28022,17.4021978 103.811538,16.0813187 103.811538,12.8351648 C103.811538,11.5692308 103.426374,10.1934066 101.940659,9.36813187 C100.51044,8.54285714 98.0884615,8.37802198 95.7774725,8.37802198 L93.0813187,8.37802198 L93.0813187,17.4021978 L97.7032967,17.4021978 Z M84.3324176,0.893956044 L95.9428571,0.893956044 C101.335714,0.893956044 105.352198,1.66428571 108.048352,3.15054945 C111.12967,4.85604396 112.56044,7.5521978 112.56044,10.8538462 C112.56044,15.1461538 110.194505,17.621978 106.562637,18.9428571 L106.562637,19.0527473 C111.624725,20.5384615 114.156593,23.8395604 114.156593,28.7368132 C114.156593,33.6346154 111.624725,37.2659341 106.562637,39.1917582 C103.811538,40.2373626 100.399451,40.7324176 96.1631868,40.7324176 L84.3324176,40.7324176 L84.3324176,0.893956044 L84.3324176,0.893956044 Z" id="Fill-22" fill="#005992" mask="url(#mask-4)"></path>
                    <path d="M126.04011,22.739011 L110.687363,0.893956044 L120.867033,0.893956044 L125.709341,8.10274725 C127.25,10.3587912 128.956044,12.9994505 130.496703,15.4208791 L130.606593,15.4208791 C132.147253,12.9994505 133.742857,10.5236264 135.393956,8.04725275 L140.181319,0.893956044 L150.030769,0.893956044 L134.788462,22.6840659 L134.788462,40.7324176 L126.04011,40.7324176 L126.04011,22.739011" id="Fill-23" fill="#005992" mask="url(#mask-4)"></path>
                </g>
            </g>
        </g>
    </g>
</svg>